<svg xmlns="http://www.w3.org/2000/svg" xmlns:xlink="http://www.w3.org/1999/xlink" width="1440" zoomAndPan="magnify" viewBox="0 0 1080 239.999995" height="320" preserveAspectRatio="xMidYMid meet" version="1.0"><defs><clipPath id="2a75df988c"><path d="M 0 0 L 1079.722656 0 L 1079.722656 238 L 0 238 Z M 0 0 " clip-rule="nonzero"/></clipPath></defs><g clip-path="url(#2a75df988c)"><path fill="#f2a516" d="M -199.027344 170.550781 L -177.714844 165.84375 C -156.402344 160.777344 -113.777344 151.894531 -71.152344 161.046875 C -28.527344 170.550781 14.097656 198.976562 56.722656 198.976562 C 99.347656 198.976562 141.972656 170.550781 184.597656 170.550781 C 227.222656 170.550781 269.847656 198.976562 312.472656 217.894531 C 355.097656 237.171875 397.722656 246.054688 440.347656 227.398438 C 482.972656 208.746094 525.597656 160.777344 568.222656 151.628906 C 610.847656 142.125 653.472656 170.550781 696.097656 156.335938 C 738.722656 142.125 781.347656 85.273438 823.972656 80.566406 C 866.597656 75.503906 909.222656 123.472656 951.847656 142.125 C 994.472656 160.777344 1037.097656 151.894531 1058.410156 146.832031 L 1079.722656 142.125 L 1079.722656 0 L 1058.410156 0 C 1037.097656 0 994.472656 0 951.847656 0 C 909.222656 0 866.597656 0 823.972656 0 C 781.347656 0 738.722656 0 696.097656 0 C 653.472656 0 610.847656 0 568.222656 0 C 525.597656 0 482.972656 0 440.347656 0 C 397.722656 0 355.097656 0 312.472656 0 C 269.847656 0 227.222656 0 184.597656 0 C 141.972656 0 99.347656 0 56.722656 0 C 14.097656 0 -28.527344 0 -71.152344 0 C -113.777344 0 -156.402344 0 -177.714844 0 L -199.027344 0 Z M -199.027344 170.550781 " fill-opacity="1" fill-rule="nonzero"/></g></svg>